<svg id="Layer_1" enable-background="new 0 0 512 512" height="512" viewBox="0 0 512 512" width="512" xmlns="http://www.w3.org/2000/svg"><g><path d="m497 208.867c8.284 0 15 6.716 15 15v64.267c0 70.285-57.182 127.467-127.467 127.467h-257.066c-70.285-.001-127.467-57.183-127.467-127.468v-64.267c0-8.284 6.716-15 15-15h482z" fill="#aae745"/><path d="m497 208.867h-241v206.733h128.533c70.285 0 127.467-57.182 127.467-127.467v-64.267c0-8.283-6.716-14.999-15-14.999z" fill="#1fd879"/><path d="m384.533 351.333h-257.066c-70.285 0-127.467-57.181-127.467-127.466s57.182-127.467 127.467-127.467h257.066c70.285 0 127.467 57.182 127.467 127.467s-57.182 127.466-127.467 127.466z" fill="#1fd879"/><path d="m384.533 96.4h-128.533v254.934h128.533c70.285 0 127.467-57.182 127.467-127.467s-57.182-127.467-127.467-127.467z" fill="#00b9a0"/><path d="m143.533 190.667c8.284 0 15-6.716 15-15s-6.716-15-15-15h-32.133c-8.284 0-15 6.716-15 15v96.4c0 8.284 6.716 15 15 15h32.133c8.284 0 15-6.716 15-15s-6.716-15-15-15h-17.133v-18.2h9.1c8.284 0 15-6.716 15-15s-6.716-15-15-15h-9.1v-18.2z" fill="#f0f5ff"/><path d="m215.833 160.667c-21.56 0-39.1 17.54-39.1 39.1v72.3c0 8.284 6.716 15 15 15s15-6.716 15-15v-17.134h18.2v17.134c0 8.284 6.716 15 15 15s15-6.716 15-15v-72.3c0-21.56-17.54-39.1-39.1-39.1zm-9.1 64.266v-25.167c0-5.018 4.083-9.1 9.1-9.1s9.1 4.083 9.1 9.1v25.167z" fill="#f0f5ff"/><g fill="#d8f1fb"><path d="m312.233 208.867c-5.018 0-9.1-4.083-9.1-9.1 0-5.108 4.151-9.1 9.1-9.1h8.033c8.284 0 15-6.716 15-15s-6.716-15-15-15h-8.033c-21.61 0-39.1 17.475-39.1 39.1 0 21.56 17.54 39.1 39.1 39.1 5.018 0 9.1 4.083 9.1 9.1 0 4.947-3.997 9.1-9.1 9.1h-8.033c-8.284 0-15 6.716-15 15s6.716 15 15 15h8.033c21.634 0 39.1-17.512 39.1-39.1 0-21.56-17.54-39.1-39.1-39.1z"/><path d="m423.375 162.25c-7.406-3.703-16.418-.702-20.124 6.708l-10.685 21.368-10.684-21.367c-3.705-7.41-12.713-10.414-20.124-6.708-7.41 3.705-10.413 12.715-6.708 20.125l22.516 45.032v44.66c0 8.284 6.716 15 15 15s15-6.716 15-15v-44.66l22.517-45.032c3.705-7.411.702-16.421-6.708-20.126z"/></g></g></svg>