<svg width="196" height="86" viewBox="0 0 196 86" fill="none" xmlns="http://www.w3.org/2000/svg">
<rect y="4" width="196" height="82" rx="10" fill="#B1F9B3"/>
<path d="M27.272 64V19.2H55.496V25.856H34.184V57.344H55.496V64H27.272ZM30.408 44.352V37.696H51.976V44.352H30.408ZM77.536 64.64C74.7627 64.64 72.224 63.872 69.92 62.336C67.6587 60.8 65.8453 58.7093 64.48 56.064C63.1147 53.4187 62.432 50.432 62.432 47.104C62.432 43.7333 63.1147 40.7467 64.48 38.144C65.888 35.4987 67.7653 33.4293 70.112 31.936C72.5013 30.4427 75.168 29.696 78.112 29.696C79.8613 29.696 81.4613 29.952 82.912 30.464C84.3627 30.976 85.6213 31.7013 86.688 32.64C87.7973 33.536 88.6933 34.5813 89.376 35.776C90.1013 36.9707 90.5493 38.2507 90.72 39.616L89.248 39.104V30.4H95.904V64H89.248V56L90.784 55.552C90.528 56.704 89.9947 57.8347 89.184 58.944C88.416 60.0107 87.4133 60.9707 86.176 61.824C84.9813 62.6773 83.6373 63.36 82.144 63.872C80.6933 64.384 79.1573 64.64 77.536 64.64ZM79.264 58.56C81.2693 58.56 83.04 58.0693 84.576 57.088C86.112 56.1067 87.3067 54.7627 88.16 53.056C89.056 51.3067 89.504 49.3227 89.504 47.104C89.504 44.928 89.056 42.9867 88.16 41.28C87.3067 39.5733 86.112 38.2293 84.576 37.248C83.04 36.2667 81.2693 35.776 79.264 35.776C77.3013 35.776 75.552 36.2667 74.016 37.248C72.5227 38.2293 71.328 39.5733 70.432 41.28C69.5787 42.9867 69.152 44.928 69.152 47.104C69.152 49.3227 69.5787 51.3067 70.432 53.056C71.328 54.7627 72.5227 56.1067 74.016 57.088C75.552 58.0693 77.3013 58.56 79.264 58.56ZM116.308 64.64C113.492 64.64 110.953 64.1493 108.692 63.168C106.431 62.1867 104.553 60.736 103.06 58.816L107.54 54.976C108.82 56.4693 110.207 57.5573 111.7 58.24C113.236 58.88 114.964 59.2 116.884 59.2C117.652 59.2 118.356 59.1147 118.996 58.944C119.679 58.7307 120.255 58.432 120.724 58.048C121.236 57.664 121.62 57.216 121.876 56.704C122.132 56.1493 122.26 55.552 122.26 54.912C122.26 53.8027 121.855 52.9067 121.044 52.224C120.617 51.9253 119.935 51.6053 118.996 51.264C118.1 50.88 116.927 50.496 115.476 50.112C113.001 49.472 110.975 48.7467 109.396 47.936C107.817 47.1253 106.601 46.208 105.748 45.184C105.108 44.3733 104.639 43.4987 104.34 42.56C104.041 41.5787 103.892 40.512 103.892 39.36C103.892 37.952 104.191 36.672 104.788 35.52C105.428 34.3253 106.281 33.3013 107.348 32.448C108.457 31.552 109.737 30.8693 111.188 30.4C112.681 29.9307 114.26 29.696 115.924 29.696C117.503 29.696 119.06 29.9093 120.596 30.336C122.175 30.7627 123.625 31.3813 124.948 32.192C126.271 33.0027 127.38 33.9627 128.276 35.072L124.5 39.232C123.689 38.4213 122.793 37.7173 121.812 37.12C120.873 36.48 119.913 35.9893 118.932 35.648C117.951 35.3067 117.055 35.136 116.244 35.136C115.348 35.136 114.537 35.2213 113.812 35.392C113.087 35.5627 112.468 35.8187 111.956 36.16C111.487 36.5013 111.124 36.928 110.868 37.44C110.612 37.952 110.484 38.528 110.484 39.168C110.527 39.7227 110.655 40.256 110.868 40.768C111.124 41.2373 111.465 41.6427 111.892 41.984C112.361 42.3253 113.065 42.688 114.004 43.072C114.943 43.456 116.137 43.8187 117.588 44.16C119.721 44.7147 121.471 45.3333 122.836 46.016C124.244 46.656 125.353 47.4027 126.164 48.256C127.017 49.0667 127.615 50.0053 127.956 51.072C128.297 52.1387 128.468 53.3333 128.468 54.656C128.468 56.576 127.913 58.304 126.804 59.84C125.737 61.3333 124.287 62.5067 122.452 63.36C120.617 64.2133 118.569 64.64 116.308 64.64ZM141.365 78.72L148.149 63.04L148.213 68.288L131.445 30.4H139.125L149.621 55.104C149.834 55.5307 150.09 56.192 150.389 57.088C150.688 57.9413 150.944 58.7947 151.157 59.648L149.493 60.032C149.834 59.136 150.154 58.24 150.453 57.344C150.794 56.448 151.114 55.552 151.413 54.656L160.181 30.4H167.989L154.165 64L148.469 78.72H141.365Z" fill="#002D07"/>
</svg>
