<svg width="205" height="85" viewBox="0 0 205 85" fill="none" xmlns="http://www.w3.org/2000/svg">
<rect y="3" width="205" height="82" rx="10" fill="#DE999A"/>
<path d="M60.52 64V19.2H67.432V64H60.52ZM31.272 64V19.2H38.184V64H31.272ZM34.28 44.992V38.336H63.592V44.992H34.28ZM91.2235 64.64C88.4502 64.64 85.9115 63.872 83.6075 62.336C81.3462 60.8 79.5328 58.7093 78.1675 56.064C76.8022 53.4187 76.1195 50.432 76.1195 47.104C76.1195 43.7333 76.8022 40.7467 78.1675 38.144C79.5755 35.4987 81.4528 33.4293 83.7995 31.936C86.1888 30.4427 88.8555 29.696 91.7995 29.696C93.5488 29.696 95.1488 29.952 96.5995 30.464C98.0502 30.976 99.3088 31.7013 100.376 32.64C101.485 33.536 102.381 34.5813 103.064 35.776C103.789 36.9707 104.237 38.2507 104.408 39.616L102.936 39.104V30.4H109.592V64H102.936V56L104.472 55.552C104.216 56.704 103.682 57.8347 102.872 58.944C102.104 60.0107 101.101 60.9707 99.8635 61.824C98.6688 62.6773 97.3248 63.36 95.8315 63.872C94.3808 64.384 92.8448 64.64 91.2235 64.64ZM92.9515 58.56C94.9568 58.56 96.7275 58.0693 98.2635 57.088C99.7995 56.1067 100.994 54.7627 101.848 53.056C102.744 51.3067 103.192 49.3227 103.192 47.104C103.192 44.928 102.744 42.9867 101.848 41.28C100.994 39.5733 99.7995 38.2293 98.2635 37.248C96.7275 36.2667 94.9568 35.776 92.9515 35.776C90.9888 35.776 89.2395 36.2667 87.7035 37.248C86.2102 38.2293 85.0155 39.5733 84.1195 41.28C83.2662 42.9867 82.8395 44.928 82.8395 47.104C82.8395 49.3227 83.2662 51.3067 84.1195 53.056C85.0155 54.7627 86.2102 56.1067 87.7035 57.088C89.2395 58.0693 90.9888 58.56 92.9515 58.56ZM118.796 64V30.4H125.452V40.96L124.812 38.4C125.281 36.7787 126.07 35.3067 127.18 33.984C128.332 32.6613 129.633 31.616 131.083 30.848C132.577 30.08 134.113 29.696 135.692 29.696C136.417 29.696 137.1 29.76 137.74 29.888C138.422 30.016 138.956 30.1653 139.34 30.336L137.612 37.504C137.1 37.2907 136.524 37.12 135.884 36.992C135.286 36.8213 134.689 36.736 134.092 36.736C132.94 36.736 131.83 36.9707 130.764 37.44C129.74 37.8667 128.822 38.4853 128.012 39.296C127.244 40.064 126.625 40.9813 126.156 42.048C125.686 43.072 125.452 44.2027 125.452 45.44V64H118.796ZM157.187 64.64C154.115 64.64 151.363 63.8933 148.931 62.4C146.541 60.864 144.643 58.7947 143.235 56.192C141.827 53.5467 141.123 50.5387 141.123 47.168C141.123 43.7973 141.805 40.8107 143.171 38.208C144.579 35.5627 146.477 33.4933 148.867 32C151.256 30.464 153.965 29.696 156.995 29.696C158.659 29.696 160.259 29.9733 161.795 30.528C163.373 31.04 164.781 31.7653 166.019 32.704C167.256 33.6 168.216 34.6027 168.899 35.712C169.624 36.7787 169.987 37.8667 169.987 38.976L168.067 39.104V16.64H174.659V64H168.067V56H169.347C169.347 57.024 169.005 58.048 168.323 59.072C167.64 60.0533 166.723 60.9707 165.571 61.824C164.461 62.6773 163.16 63.36 161.667 63.872C160.216 64.384 158.723 64.64 157.187 64.64ZM158.083 58.944C160.088 58.944 161.859 58.432 163.395 57.408C164.931 56.384 166.125 54.9973 166.979 53.248C167.875 51.456 168.323 49.4293 168.323 47.168C168.323 44.9067 167.875 42.9013 166.979 41.152C166.125 39.36 164.931 37.952 163.395 36.928C161.859 35.904 160.088 35.392 158.083 35.392C156.077 35.392 154.307 35.904 152.771 36.928C151.235 37.952 150.019 39.36 149.123 41.152C148.269 42.9013 147.843 44.9067 147.843 47.168C147.843 49.4293 148.269 51.456 149.123 53.248C150.019 54.9973 151.235 56.384 152.771 57.408C154.307 58.432 156.077 58.944 158.083 58.944Z" fill="#D03D40"/>
</svg>
