<svg width="296" height="86" viewBox="0 0 296 86" fill="none" xmlns="http://www.w3.org/2000/svg">
<rect y="4" width="296" height="82" rx="10" fill="#F1F9B1"/>
<path d="M30.272 64V19.2H37.056L53.376 45.76L50.112 45.696L66.624 19.2H73.024V64H66.112V45.632C66.112 41.792 66.1973 38.336 66.368 35.264C66.5813 32.192 66.9227 29.1413 67.392 26.112L68.288 28.48L53.632 51.136H49.408L35.2 28.736L35.904 26.112C36.3733 28.9707 36.6933 31.9147 36.864 34.944C37.0773 37.9307 37.184 41.4933 37.184 45.632V64H30.272ZM99.6005 64.64C96.1445 64.64 93.0725 63.9147 90.3845 62.464C87.7392 60.9707 85.6485 58.944 84.1125 56.384C82.6192 53.824 81.8725 50.88 81.8725 47.552C81.8725 44.9067 82.2992 42.496 83.1525 40.32C84.0058 38.144 85.1792 36.2667 86.6725 34.688C88.2085 33.0667 90.0218 31.8293 92.1125 30.976C94.2458 30.08 96.5498 29.632 99.0245 29.632C101.201 29.632 103.227 30.0587 105.105 30.912C106.982 31.7227 108.603 32.8533 109.969 34.304C111.377 35.7547 112.443 37.4827 113.169 39.488C113.937 41.4507 114.299 43.6053 114.257 45.952L114.193 48.768H86.7365L85.2645 43.52H108.497L107.537 44.608V43.072C107.409 41.664 106.939 40.4053 106.129 39.296C105.318 38.1867 104.294 37.312 103.057 36.672C101.819 36.032 100.475 35.712 99.0245 35.712C96.7205 35.712 94.7792 36.16 93.2005 37.056C91.6218 37.9093 90.4272 39.1893 89.6165 40.896C88.8058 42.56 88.4005 44.6293 88.4005 47.104C88.4005 49.4507 88.8912 51.4987 89.8725 53.248C90.8538 54.9547 92.2405 56.2773 94.0325 57.216C95.8245 58.1547 97.8938 58.624 100.241 58.624C101.905 58.624 103.441 58.3467 104.849 57.792C106.299 57.2373 107.857 56.2347 109.521 54.784L112.849 59.456C111.825 60.48 110.566 61.376 109.073 62.144C107.622 62.912 106.065 63.5307 104.401 64C102.779 64.4267 101.179 64.64 99.6005 64.64ZM135.437 64.64C132.365 64.64 129.613 63.8933 127.181 62.4C124.791 60.864 122.893 58.7947 121.485 56.192C120.077 53.5467 119.373 50.5387 119.373 47.168C119.373 43.7973 120.055 40.8107 121.421 38.208C122.829 35.5627 124.727 33.4933 127.117 32C129.506 30.464 132.215 29.696 135.245 29.696C136.909 29.696 138.509 29.9733 140.045 30.528C141.623 31.04 143.031 31.7653 144.269 32.704C145.506 33.6 146.466 34.6027 147.149 35.712C147.874 36.7787 148.237 37.8667 148.237 38.976L146.317 39.104V16.64H152.909V64H146.317V56H147.597C147.597 57.024 147.255 58.048 146.573 59.072C145.89 60.0533 144.973 60.9707 143.821 61.824C142.711 62.6773 141.41 63.36 139.917 63.872C138.466 64.384 136.973 64.64 135.437 64.64ZM136.333 58.944C138.338 58.944 140.109 58.432 141.645 57.408C143.181 56.384 144.375 54.9973 145.229 53.248C146.125 51.456 146.573 49.4293 146.573 47.168C146.573 44.9067 146.125 42.9013 145.229 41.152C144.375 39.36 143.181 37.952 141.645 36.928C140.109 35.904 138.338 35.392 136.333 35.392C134.327 35.392 132.557 35.904 131.021 36.928C129.485 37.952 128.269 39.36 127.373 41.152C126.519 42.9013 126.093 44.9067 126.093 47.168C126.093 49.4293 126.519 51.456 127.373 53.248C128.269 54.9973 129.485 56.384 131.021 57.408C132.557 58.432 134.327 58.944 136.333 58.944ZM163.071 64V30.4H169.663V64H163.071ZM166.271 22.976C164.863 22.976 163.775 22.6133 163.007 21.888C162.239 21.1627 161.855 20.1387 161.855 18.816C161.855 17.5787 162.239 16.576 163.007 15.808C163.818 15.04 164.906 14.656 166.271 14.656C167.679 14.656 168.767 15.0187 169.535 15.744C170.303 16.4693 170.687 17.4933 170.687 18.816C170.687 20.0533 170.282 21.056 169.471 21.824C168.703 22.592 167.636 22.976 166.271 22.976ZM191.572 64.64C189.182 64.64 187.092 64.0853 185.3 62.976C183.55 61.8667 182.185 60.3093 181.204 58.304C180.265 56.2987 179.796 53.9093 179.796 51.136V30.4H186.388V49.344C186.388 51.3067 186.686 53.0133 187.284 54.464C187.924 55.872 188.82 56.96 189.972 57.728C191.166 58.496 192.596 58.88 194.26 58.88C195.497 58.88 196.628 58.688 197.652 58.304C198.676 57.8773 199.55 57.3013 200.276 56.576C201.044 55.8507 201.641 54.976 202.068 53.952C202.494 52.928 202.708 51.8187 202.708 50.624V30.4H209.3V64H202.708V56.96L203.86 56.192C203.348 57.7707 202.473 59.2 201.236 60.48C200.041 61.76 198.612 62.784 196.948 63.552C195.284 64.2773 193.492 64.64 191.572 64.64ZM218.418 64V30.4H225.074V37.568L223.858 38.336C224.199 37.2267 224.732 36.16 225.458 35.136C226.226 34.112 227.143 33.216 228.21 32.448C229.319 31.6373 230.492 30.9973 231.73 30.528C233.01 30.0587 234.311 29.824 235.634 29.824C237.554 29.824 239.239 30.144 240.69 30.784C242.14 31.424 243.335 32.384 244.274 33.664C245.212 34.944 245.895 36.544 246.322 38.464L245.298 38.208L245.746 37.12C246.215 36.1387 246.855 35.2213 247.666 34.368C248.519 33.472 249.479 32.6827 250.546 32C251.612 31.3173 252.743 30.784 253.938 30.4C255.132 30.016 256.306 29.824 257.458 29.824C259.975 29.824 262.044 30.336 263.666 31.36C265.33 32.384 266.567 33.9413 267.378 36.032C268.231 38.1227 268.658 40.7253 268.658 43.84V64H262.002V44.224C262.002 42.304 261.746 40.7467 261.234 39.552C260.764 38.3147 260.039 37.3973 259.058 36.8C258.076 36.2027 256.818 35.904 255.282 35.904C254.087 35.904 252.956 36.1173 251.89 36.544C250.866 36.928 249.97 37.4827 249.201 38.208C248.434 38.9333 247.836 39.7867 247.41 40.768C246.983 41.7067 246.77 42.752 246.77 43.904V64H240.114V44.096C240.114 42.3467 239.858 40.8747 239.346 39.68C238.834 38.4427 238.087 37.504 237.106 36.864C236.124 36.224 234.93 35.904 233.522 35.904C232.327 35.904 231.218 36.1173 230.194 36.544C229.17 36.928 228.274 37.4827 227.506 38.208C226.738 38.8907 226.14 39.7227 225.714 40.704C225.287 41.6427 225.074 42.6667 225.074 43.776V64H218.418Z" fill="#C1B839"/>
</svg>
